<svg xmlns="http://www.w3.org/2000/svg" width="400" height="400"><defs><style type="text/css"><![CDATA[ 
    .arc text {font: 10px sans-serif; text-anchor: middle;}
    .arc path {stroke: #fff;}
   ]]></style></defs><g transform="translate(200, 200)"><g class="arc"><path d="M1.0409e-14,-170A170,170,0,0,1,169.3427,-14.9347L0,0Z" style="fill: #393b79;"></path><text transform="translate(94.54659313694343,-103.25183643014434)" dy=".35em">0</text></g><g class="arc"><path d="M169.3427,-14.9347A170,170,0,0,1,106.7075,132.3386L0,0Z" style="fill: #5254a3;"></path><text transform="translate(128.83245863122184,54.79231335720838)" dy=".35em">1</text></g><g class="arc"><path d="M106.7075,132.3386A170,170,0,0,1,-119.4505,120.9611L0,0Z" style="fill: #6b6ecf;"></path><text transform="translate(-7.034204545167788,139.82317392484245)" dy=".35em">2</text></g><g class="arc"><path d="M-119.4505,120.9611A170,170,0,0,1,-138.7777,-98.1874L0,0Z" style="fill: #9c9ede;"></path><text transform="translate(-139.45870528004414,12.299167517104042)" dy=".35em">3</text></g><g class="arc"><path d="M-138.7777,-98.1874A170,170,0,0,1,1.1976e-13,-170L0,0Z" style="fill: #637939;"></path><text transform="translate(-64.34118048700816,-124.3391028338963)" dy=".35em">4</text></g></g></svg>